<mxfile host="app.diagrams.net" modified="2023-11-27T17:07:44.415Z" agent="Mozilla/5.0 (Windows NT 10.0; Win64; x64) AppleWebKit/537.36 (KHTML, like Gecko) Chrome/119.0.0.0 Safari/537.36" etag="O2_Wc3KTFNZVM4sLHp6M" version="22.1.4" type="github">
  <diagram name="Page-1" id="efa7a0a1-bf9b-a30e-e6df-94a7791c09e9">
    <mxGraphModel dx="2260" dy="758" grid="1" gridSize="10" guides="1" tooltips="1" connect="1" arrows="1" fold="1" page="1" pageScale="1" pageWidth="826" pageHeight="1169" background="none" math="0" shadow="0">
      <root>
        <mxCell id="0" />
        <mxCell id="1" parent="0" />
        <mxCell id="nXoYVnP4sWO2JrviHPQS-160" value="" style="edgeStyle=orthogonalEdgeStyle;rounded=0;orthogonalLoop=1;jettySize=auto;html=1;fontFamily=Comic Sans MS;fontSize=12;fontColor=default;curved=1;startArrow=classic;startFill=1;endArrow=none;endFill=0;" parent="1" source="nXoYVnP4sWO2JrviHPQS-157" target="nXoYVnP4sWO2JrviHPQS-159" edge="1">
          <mxGeometry relative="1" as="geometry" />
        </mxCell>
        <mxCell id="41hNcN_Gn2_CRPLQVdJF-21" value="" style="edgeStyle=orthogonalEdgeStyle;rounded=0;orthogonalLoop=1;jettySize=auto;html=1;startArrow=classic;startFill=1;endArrow=none;endFill=0;" edge="1" parent="1" source="nXoYVnP4sWO2JrviHPQS-157" target="41hNcN_Gn2_CRPLQVdJF-20">
          <mxGeometry relative="1" as="geometry" />
        </mxCell>
        <mxCell id="nXoYVnP4sWO2JrviHPQS-157" value="&lt;div style=&quot;text-align: center; box-sizing: border-box; width: 100%; background-image: initial; background-position: initial; background-size: initial; background-repeat: initial; background-attachment: initial; background-origin: initial; background-clip: initial; padding: 2px;&quot;&gt;&lt;b&gt;&lt;font style=&quot;font-size: 14px;&quot;&gt;user&lt;/font&gt;&lt;/b&gt;&lt;/div&gt;&lt;table style=&quot;width:100%;font-size:1em;&quot; cellpadding=&quot;2&quot; cellspacing=&quot;0&quot;&gt;&lt;tbody&gt;&lt;tr&gt;&lt;td&gt;&lt;br&gt;&lt;/td&gt;&lt;td&gt;id&lt;/td&gt;&lt;td&gt;ObjectId&lt;/td&gt;&lt;/tr&gt;&lt;tr&gt;&lt;td&gt;&lt;br&gt;&lt;/td&gt;&lt;td&gt;username&lt;/td&gt;&lt;td&gt;String&lt;/td&gt;&lt;/tr&gt;&lt;tr&gt;&lt;td&gt;&lt;br&gt;&lt;/td&gt;&lt;td&gt;displayName&lt;/td&gt;&lt;td&gt;String&lt;/td&gt;&lt;/tr&gt;&lt;tr&gt;&lt;td&gt;&lt;br&gt;&lt;/td&gt;&lt;td&gt;password&lt;/td&gt;&lt;td&gt;String&lt;/td&gt;&lt;/tr&gt;&lt;tr&gt;&lt;td&gt;&lt;br&gt;&lt;/td&gt;&lt;td&gt;phone&lt;/td&gt;&lt;td&gt;String&lt;/td&gt;&lt;/tr&gt;&lt;tr&gt;&lt;td&gt;&lt;br&gt;&lt;/td&gt;&lt;td&gt;email&lt;/td&gt;&lt;td&gt;String&lt;/td&gt;&lt;/tr&gt;&lt;tr&gt;&lt;td&gt;&lt;br&gt;&lt;/td&gt;&lt;td&gt;address&lt;/td&gt;&lt;td&gt;String&lt;/td&gt;&lt;/tr&gt;&lt;tr&gt;&lt;td&gt;&lt;br&gt;&lt;/td&gt;&lt;td&gt;isNewUser&lt;/td&gt;&lt;td&gt;boolean&lt;/td&gt;&lt;/tr&gt;&lt;tr&gt;&lt;td&gt;&lt;br&gt;&lt;/td&gt;&lt;td&gt;admin&lt;/td&gt;&lt;td&gt;boolean&lt;/td&gt;&lt;/tr&gt;&lt;tr&gt;&lt;td&gt;&lt;br&gt;&lt;/td&gt;&lt;td&gt;&lt;br&gt;&lt;/td&gt;&lt;td&gt;&lt;br&gt;&lt;/td&gt;&lt;/tr&gt;&lt;tr&gt;&lt;td&gt;&lt;br&gt;&lt;/td&gt;&lt;td&gt;&lt;br&gt;&lt;/td&gt;&lt;td&gt;&lt;br&gt;&lt;/td&gt;&lt;/tr&gt;&lt;/tbody&gt;&lt;/table&gt;" style="verticalAlign=top;align=left;overflow=fill;html=1;whiteSpace=wrap;rounded=0;shadow=0;glass=0;spacing=9;fontFamily=Comic Sans MS;fontSize=12;fillColor=#bac8d3;textDirection=ltr;labelBackgroundColor=none;labelBorderColor=default;fillStyle=solid;strokeColor=#23445d;" parent="1" vertex="1">
          <mxGeometry x="60" y="320" width="200" height="200" as="geometry" />
        </mxCell>
        <mxCell id="41hNcN_Gn2_CRPLQVdJF-19" value="" style="rounded=0;orthogonalLoop=1;jettySize=auto;html=1;endArrow=classic;endFill=1;edgeStyle=orthogonalEdgeStyle;curved=1;startArrow=classic;startFill=1;" edge="1" parent="1" source="nXoYVnP4sWO2JrviHPQS-159" target="nZpVSOsOOwoPVGHy4TQY-24">
          <mxGeometry relative="1" as="geometry">
            <Array as="points">
              <mxPoint x="-95" y="510" />
              <mxPoint x="-92" y="510" />
            </Array>
          </mxGeometry>
        </mxCell>
        <mxCell id="nXoYVnP4sWO2JrviHPQS-159" value="&lt;div style=&quot;text-align: center; box-sizing: border-box; width: 100%; background-image: initial; background-position: initial; background-size: initial; background-repeat: initial; background-attachment: initial; background-origin: initial; background-clip: initial; padding: 2px;&quot;&gt;&lt;span style=&quot;font-size: 14px;&quot;&gt;&lt;b&gt;post&lt;/b&gt;&lt;/span&gt;&lt;br&gt;&lt;table style=&quot;font-size: 1em; text-align: left; width: 100%;&quot; cellpadding=&quot;2&quot; cellspacing=&quot;0&quot;&gt;&lt;tbody&gt;&lt;tr&gt;&lt;td&gt;&amp;nbsp;id&lt;/td&gt;&lt;td&gt;ObjectId&lt;/td&gt;&lt;td&gt;&lt;br&gt;&lt;/td&gt;&lt;/tr&gt;&lt;tr&gt;&lt;td&gt;&amp;nbsp;userId&lt;/td&gt;&lt;td&gt;ObjectId&lt;/td&gt;&lt;td&gt;&lt;br&gt;&lt;/td&gt;&lt;/tr&gt;&lt;tr&gt;&lt;td&gt;content&lt;br&gt;&lt;/td&gt;&lt;td&gt;String&lt;/td&gt;&lt;td&gt;&lt;br&gt;&lt;/td&gt;&lt;/tr&gt;&lt;tr&gt;&lt;td&gt;photos&lt;/td&gt;&lt;td&gt;array-string&lt;/td&gt;&lt;td&gt;&lt;br&gt;&lt;/td&gt;&lt;/tr&gt;&lt;tr&gt;&lt;td&gt;likes&lt;/td&gt;&lt;td&gt;number&lt;/td&gt;&lt;td&gt;&lt;br&gt;&lt;/td&gt;&lt;/tr&gt;&lt;tr&gt;&lt;td&gt;createdAt&lt;/td&gt;&lt;td&gt;Date&lt;/td&gt;&lt;td&gt;&lt;br&gt;&lt;/td&gt;&lt;/tr&gt;&lt;tr&gt;&lt;td&gt;&lt;br&gt;&lt;/td&gt;&lt;td&gt;&lt;br&gt;&lt;/td&gt;&lt;td&gt;&lt;br&gt;&lt;/td&gt;&lt;/tr&gt;&lt;/tbody&gt;&lt;/table&gt;&lt;/div&gt;" style="verticalAlign=top;align=left;overflow=fill;html=1;rounded=0;shadow=0;glass=0;strokeColor=default;spacing=9;fontFamily=Comic Sans MS;fontSize=12;fontColor=default;fillColor=default;gradientColor=none;textDirection=ltr;labelBackgroundColor=default;labelBorderColor=default;fillStyle=solid;whiteSpace=wrap;" parent="1" vertex="1">
          <mxGeometry x="-180" y="320" width="170" height="140" as="geometry" />
        </mxCell>
        <mxCell id="nZpVSOsOOwoPVGHy4TQY-21" value="" style="edgeStyle=orthogonalEdgeStyle;curved=1;rounded=0;orthogonalLoop=1;jettySize=auto;html=1;fontFamily=Comic Sans MS;fontSize=12;fontColor=default;startSize=30;" parent="1" source="nZpVSOsOOwoPVGHy4TQY-11" target="nXoYVnP4sWO2JrviHPQS-157" edge="1">
          <mxGeometry relative="1" as="geometry" />
        </mxCell>
        <mxCell id="41hNcN_Gn2_CRPLQVdJF-29" value="" style="edgeStyle=orthogonalEdgeStyle;rounded=0;orthogonalLoop=1;jettySize=auto;html=1;endArrow=none;endFill=0;fillColor=#f8cecc;strokeColor=#b85450;strokeWidth=2;" edge="1" parent="1" source="nZpVSOsOOwoPVGHy4TQY-11" target="41hNcN_Gn2_CRPLQVdJF-28">
          <mxGeometry relative="1" as="geometry" />
        </mxCell>
        <mxCell id="nZpVSOsOOwoPVGHy4TQY-11" value="&lt;div style=&quot;text-align: center; box-sizing: border-box; width: 100%; background-image: initial; background-position: initial; background-size: initial; background-repeat: initial; background-attachment: initial; background-origin: initial; background-clip: initial; padding: 2px;&quot;&gt;&lt;span style=&quot;font-size: 14px;&quot;&gt;&lt;b&gt;story&lt;/b&gt;&lt;/span&gt;&lt;br&gt;&lt;table style=&quot;font-size: 1em; text-align: left; width: 100%;&quot; cellpadding=&quot;2&quot; cellspacing=&quot;0&quot;&gt;&lt;tbody&gt;&lt;tr&gt;&lt;td&gt;id&lt;/td&gt;&lt;td&gt;ObjectId&lt;/td&gt;&lt;/tr&gt;&lt;tr&gt;&lt;td&gt;userId&lt;/td&gt;&lt;td&gt;ObjectId&lt;/td&gt;&lt;/tr&gt;&lt;tr&gt;&lt;td&gt;videoUrl&lt;/td&gt;&lt;td&gt;String&lt;/td&gt;&lt;/tr&gt;&lt;tr&gt;&lt;td&gt;reacts&lt;/td&gt;&lt;td&gt;String&lt;/td&gt;&lt;/tr&gt;&lt;tr&gt;&lt;td&gt;createdAt&lt;/td&gt;&lt;td&gt;Date&lt;/td&gt;&lt;/tr&gt;&lt;tr&gt;&lt;td&gt;&lt;br&gt;&lt;/td&gt;&lt;td&gt;&lt;br&gt;&lt;/td&gt;&lt;/tr&gt;&lt;/tbody&gt;&lt;/table&gt;&lt;/div&gt;" style="verticalAlign=top;align=left;overflow=fill;html=1;rounded=0;shadow=0;glass=0;strokeColor=default;spacing=9;fontFamily=Comic Sans MS;fontSize=12;fontColor=default;fillColor=default;gradientColor=none;textDirection=ltr;labelBackgroundColor=default;labelBorderColor=default;fillStyle=solid;whiteSpace=wrap;" parent="1" vertex="1">
          <mxGeometry x="60" y="100" width="170" height="120" as="geometry" />
        </mxCell>
        <mxCell id="nZpVSOsOOwoPVGHy4TQY-23" value="comments" style="swimlane;fontStyle=1;childLayout=stackLayout;horizontal=1;startSize=30;horizontalStack=0;resizeParent=1;resizeParentMax=0;resizeLast=0;collapsible=1;marginBottom=0;whiteSpace=wrap;html=1;rounded=0;shadow=0;glass=0;labelBackgroundColor=none;labelBorderColor=none;strokeColor=default;align=center;verticalAlign=middle;spacing=9;fontFamily=Comic Sans MS;fontSize=13;fontColor=default;fillColor=default;gradientColor=none;spacingTop=-7;swimlaneFillColor=default;" parent="1" vertex="1">
          <mxGeometry x="-180" y="540" width="165" height="168" as="geometry">
            <mxRectangle x="-155" y="450" width="90" height="40" as="alternateBounds" />
          </mxGeometry>
        </mxCell>
        <mxCell id="nZpVSOsOOwoPVGHy4TQY-24" value="id: ObjectId" style="text;strokeColor=none;fillColor=none;align=left;verticalAlign=middle;spacingLeft=4;spacingRight=4;overflow=hidden;points=[[0,0.5],[1,0.5]];portConstraint=eastwest;rotatable=0;whiteSpace=wrap;html=1;fontSize=12;fontFamily=Comic Sans MS;fontColor=default;" parent="nZpVSOsOOwoPVGHy4TQY-23" vertex="1">
          <mxGeometry y="30" width="165" height="23" as="geometry" />
        </mxCell>
        <mxCell id="nZpVSOsOOwoPVGHy4TQY-25" value="postId: ObjectId" style="text;strokeColor=none;fillColor=none;align=left;verticalAlign=middle;spacingLeft=4;spacingRight=4;overflow=hidden;points=[[0,0.5],[1,0.5]];portConstraint=eastwest;rotatable=0;whiteSpace=wrap;html=1;fontSize=12;fontFamily=Comic Sans MS;fontColor=default;" parent="nZpVSOsOOwoPVGHy4TQY-23" vertex="1">
          <mxGeometry y="53" width="165" height="23" as="geometry" />
        </mxCell>
        <mxCell id="41hNcN_Gn2_CRPLQVdJF-18" value="userId: ObjectId" style="text;strokeColor=none;fillColor=none;align=left;verticalAlign=middle;spacingLeft=4;spacingRight=4;overflow=hidden;points=[[0,0.5],[1,0.5]];portConstraint=eastwest;rotatable=0;whiteSpace=wrap;html=1;fontSize=12;fontFamily=Comic Sans MS;fontColor=default;" vertex="1" parent="nZpVSOsOOwoPVGHy4TQY-23">
          <mxGeometry y="76" width="165" height="23" as="geometry" />
        </mxCell>
        <mxCell id="nZpVSOsOOwoPVGHy4TQY-26" value="content: String" style="text;strokeColor=none;fillColor=none;align=left;verticalAlign=middle;spacingLeft=4;spacingRight=4;overflow=hidden;points=[[0,0.5],[1,0.5]];portConstraint=eastwest;rotatable=0;whiteSpace=wrap;html=1;fontSize=12;fontFamily=Comic Sans MS;fontColor=default;" parent="nZpVSOsOOwoPVGHy4TQY-23" vertex="1">
          <mxGeometry y="99" width="165" height="23" as="geometry" />
        </mxCell>
        <mxCell id="nZpVSOsOOwoPVGHy4TQY-27" value="page: number" style="text;strokeColor=none;fillColor=none;align=left;verticalAlign=middle;spacingLeft=4;spacingRight=4;overflow=hidden;points=[[0,0.5],[1,0.5]];portConstraint=eastwest;rotatable=0;whiteSpace=wrap;html=1;fontSize=12;fontFamily=Comic Sans MS;fontColor=default;" parent="nZpVSOsOOwoPVGHy4TQY-23" vertex="1">
          <mxGeometry y="122" width="165" height="23" as="geometry" />
        </mxCell>
        <mxCell id="nZpVSOsOOwoPVGHy4TQY-28" value="count: number" style="text;strokeColor=none;fillColor=none;align=left;verticalAlign=middle;spacingLeft=4;spacingRight=4;overflow=hidden;points=[[0,0.5],[1,0.5]];portConstraint=eastwest;rotatable=0;whiteSpace=wrap;html=1;fontSize=12;fontFamily=Comic Sans MS;fontColor=default;" parent="nZpVSOsOOwoPVGHy4TQY-23" vertex="1">
          <mxGeometry y="145" width="165" height="23" as="geometry" />
        </mxCell>
        <mxCell id="41hNcN_Gn2_CRPLQVdJF-25" value="" style="edgeStyle=orthogonalEdgeStyle;rounded=0;orthogonalLoop=1;jettySize=auto;html=1;endArrow=none;endFill=0;fillColor=#f8cecc;strokeColor=#b85450;strokeWidth=2;" edge="1" parent="1" source="41hNcN_Gn2_CRPLQVdJF-20" target="41hNcN_Gn2_CRPLQVdJF-24">
          <mxGeometry relative="1" as="geometry" />
        </mxCell>
        <mxCell id="41hNcN_Gn2_CRPLQVdJF-32" value="" style="edgeStyle=orthogonalEdgeStyle;rounded=0;orthogonalLoop=1;jettySize=auto;html=1;fillColor=#f8cecc;strokeColor=#b85450;strokeWidth=2;endArrow=none;endFill=0;" edge="1" parent="1" source="41hNcN_Gn2_CRPLQVdJF-20" target="41hNcN_Gn2_CRPLQVdJF-31">
          <mxGeometry relative="1" as="geometry" />
        </mxCell>
        <mxCell id="41hNcN_Gn2_CRPLQVdJF-20" value="&lt;div style=&quot;text-align: center; box-sizing: border-box; width: 100%; background-image: initial; background-position: initial; background-size: initial; background-repeat: initial; background-attachment: initial; background-origin: initial; background-clip: initial; padding: 2px;&quot;&gt;&lt;b&gt;&lt;font style=&quot;font-size: 14px;&quot;&gt;data_user&lt;/font&gt;&lt;/b&gt;&lt;/div&gt;&lt;table style=&quot;width:100%;font-size:1em;&quot; cellpadding=&quot;2&quot; cellspacing=&quot;0&quot;&gt;&lt;tbody&gt;&lt;tr&gt;&lt;td&gt;&lt;br&gt;&lt;/td&gt;&lt;td&gt;id&lt;/td&gt;&lt;td&gt;ObjectId&lt;/td&gt;&lt;/tr&gt;&lt;tr&gt;&lt;td&gt;&lt;br&gt;&lt;/td&gt;&lt;td&gt;userId&lt;/td&gt;&lt;td&gt;ObjectId&lt;/td&gt;&lt;/tr&gt;&lt;tr&gt;&lt;td&gt;&lt;br&gt;&lt;/td&gt;&lt;td&gt;hobbies&lt;/td&gt;&lt;td&gt;array-string&lt;/td&gt;&lt;/tr&gt;&lt;tr&gt;&lt;td&gt;&lt;br&gt;&lt;/td&gt;&lt;td&gt;followers&lt;/td&gt;&lt;td&gt;array-string&lt;/td&gt;&lt;/tr&gt;&lt;tr&gt;&lt;td&gt;&lt;br&gt;&lt;/td&gt;&lt;td&gt;following&lt;/td&gt;&lt;td&gt;array-string&lt;/td&gt;&lt;/tr&gt;&lt;tr&gt;&lt;td&gt;&lt;br&gt;&lt;/td&gt;&lt;td&gt;&lt;br&gt;&lt;/td&gt;&lt;td&gt;&lt;br&gt;&lt;/td&gt;&lt;/tr&gt;&lt;/tbody&gt;&lt;/table&gt;" style="verticalAlign=top;align=left;overflow=fill;html=1;whiteSpace=wrap;rounded=0;shadow=0;glass=0;strokeColor=#6c8ebf;spacing=9;fontFamily=Comic Sans MS;fontSize=12;fontColor=default;fillColor=#dae8fc;gradientColor=none;textDirection=ltr;labelBackgroundColor=default;labelBorderColor=default;" vertex="1" parent="1">
          <mxGeometry x="340" y="320" width="200" height="130" as="geometry" />
        </mxCell>
        <mxCell id="41hNcN_Gn2_CRPLQVdJF-24" value="followers và following sẽ lưu những id của user và ref đến user đó" style="whiteSpace=wrap;html=1;fontFamily=Comic Sans MS;align=left;verticalAlign=top;fillColor=#76608a;strokeColor=#432D57;rounded=1;shadow=0;glass=0;spacing=9;labelBackgroundColor=none;labelBorderColor=none;fontColor=#ffffff;" vertex="1" parent="1">
          <mxGeometry x="380" y="480" width="120" height="90" as="geometry" />
        </mxCell>
        <mxCell id="41hNcN_Gn2_CRPLQVdJF-28" value="story được hiển thị theo following. Check nếu đang theo dõi user nào thì sẽ hiện những story hiện có của user đó" style="whiteSpace=wrap;html=1;fontFamily=Comic Sans MS;align=left;verticalAlign=top;rounded=1;shadow=0;glass=0;spacing=9;labelBackgroundColor=none;labelBorderColor=none;fillStyle=solid;fillColor=#76608a;fontColor=#ffffff;strokeColor=#432D57;" vertex="1" parent="1">
          <mxGeometry x="260" y="100" width="130" height="120" as="geometry" />
        </mxCell>
        <mxCell id="41hNcN_Gn2_CRPLQVdJF-31" value="hobbies sẽ là 1 mảng chứa những sở thích của user" style="whiteSpace=wrap;html=1;fontFamily=Comic Sans MS;align=left;verticalAlign=top;fillColor=#76608a;strokeColor=#432D57;rounded=1;shadow=0;glass=0;spacing=9;labelBackgroundColor=none;labelBorderColor=none;fontColor=#ffffff;" vertex="1" parent="1">
          <mxGeometry x="580" y="350" width="120" height="70" as="geometry" />
        </mxCell>
      </root>
    </mxGraphModel>
  </diagram>
</mxfile>
